<svg id="Capa_1" enable-background="new 0 0 32 32" height="512" viewBox="0 0 32 32" width="512" xmlns="http://www.w3.org/2000/svg"><path d="m19.78 27.393.629 1.898c-1.42.471-2.903.709-4.409.709-7.72 0-14-6.28-14-14s6.28-14 14-14 14 6.28 14 14c0 1.505-.238 2.988-.708 4.408l-1.898-.629c.402-1.216.606-2.488.606-3.779 0-6.617-5.383-12-12-12s-12 5.383-12 12 5.383 12 12 12c1.292 0 2.563-.204 3.78-.607zm3.756-8.705c.308-.86.464-1.765.464-2.688 0-4.411-3.589-8-8-8s-8 3.589-8 8 3.589 8 8 8c.923 0 1.828-.156 2.688-.464l-.672-1.883c-.644.23-1.323.347-2.016.347-3.309 0-6-2.691-6-6s2.691-6 6-6 6 2.691 6 6c0 .693-.117 1.372-.347 2.017zm8.388 8.695c-.154.374-.52.617-.924.617h-3v3c0 .404-.243.77-.617.924-.124.052-.254.076-.383.076-.26 0-.516-.102-.707-.293l-5-5c-.188-.187-.293-.441-.293-.707v-3.586l-5-5v1.586c0 .553-.448 1-1 1s-1-.447-1-1v-4c0-.13.027-.26.077-.382.101-.244.296-.439.541-.541.122-.05.252-.077.382-.077h4c.553 0 1 .448 1 1s-.447 1-1 1h-1.586l5 5h3.586c.266 0 .52.105.707.293l5 5c.286.286.372.716.217 1.09zm-5.924 1.203v-1.172l-3-3v1.172zm2.586-2.586-3-3h-1.172l3 3z"/></svg>